<?xml version="1.0" encoding="UTF-8"?>
<svg width="128" height="128" viewBox="0 0 128 128" xmlns="http://www.w3.org/2000/svg">
  <!-- Background circle -->
  <circle cx="64" cy="64" r="60" fill="#2B2B2B" stroke="#4A9EFF" stroke-width="4"/>
  
  <!-- Network ports representation -->
  <rect x="20" y="30" width="88" height="68" rx="8" fill="#1E1E1E" stroke="#4A9EFF" stroke-width="2"/>
  
  <!-- Port connections -->
  <circle cx="35" cy="45" r="4" fill="#00FF88"/>
  <circle cx="50" cy="45" r="4" fill="#00FF88"/>
  <circle cx="65" cy="45" r="4" fill="#FF6B6B"/>
  <circle cx="80" cy="45" r="4" fill="#4A9EFF"/>
  <circle cx="95" cy="45" r="4" fill="#FFD93D"/>
  
  <circle cx="35" cy="60" r="4" fill="#4A9EFF"/>
  <circle cx="50" cy="60" r="4" fill="#00FF88"/>
  <circle cx="65" cy="60" r="4" fill="#4A9EFF"/>
  <circle cx="80" cy="60" r="4" fill="#FF6B6B"/>
  <circle cx="95" cy="60" r="4" fill="#00FF88"/>
  
  <circle cx="35" cy="75" r="4" fill="#FFD93D"/>
  <circle cx="50" cy="75" r="4" fill="#4A9EFF"/>
  <circle cx="65" cy="75" r="4" fill="#00FF88"/>
  <circle cx="80" cy="75" r="4" fill="#FFD93D"/>
  <circle cx="95" cy="75" r="4" fill="#FF6B6B"/>
  
  <!-- Connection lines -->
  <line x1="35" y1="45" x2="50" y2="60" stroke="#00FF88" stroke-width="2" opacity="0.6"/>
  <line x1="65" y1="45" x2="80" y2="60" stroke="#4A9EFF" stroke-width="2" opacity="0.6"/>
  <line x1="50" y1="60" x2="65" y2="75" stroke="#00FF88" stroke-width="2" opacity="0.6"/>
  
  <!-- Text -->
  <text x="64" y="95" text-anchor="middle" fill="#4A9EFF" font-family="Arial, sans-serif" font-size="12" font-weight="bold">PPORTS</text>
</svg> 